<?xml version="1.0" encoding="utf-8"?>
<!-- Generator: Adobe Illustrator 15.1.0, SVG Export Plug-In . SVG Version: 6.00 Build 0)  -->
<!DOCTYPE svg PUBLIC "-//W3C//DTD SVG 1.1//EN" "http://www.w3.org/Graphics/SVG/1.1/DTD/svg11.dtd">
<svg version="1.1" id="Layer_1" xmlns="http://www.w3.org/2000/svg" xmlns:xlink="http://www.w3.org/1999/xlink" x="0px" y="0px"
	 width="612px" height="300px" viewBox="0 0 612 300" enable-background="new 0 0 612 300" xml:space="preserve">
<g>
	<g>
		<path fill="#FFFFFF" d="M65.798,142.145c3.954,5.31,8.534,14.501,2.902,20.183c-1.363,1.375,0.758,3.496,2.121,2.121
			c6.685-6.744,2.424-17.297-2.432-23.817C67.248,139.098,64.642,140.591,65.798,142.145L65.798,142.145z"/>
	</g>
</g>
<line fill="none" stroke="#FFFFFF" stroke-width="4" stroke-linecap="round" stroke-miterlimit="10" x1="55.606" y1="27.055" x2="55.606" y2="113.722"/>
<line fill="none" stroke="#FFFFFF" stroke-width="4" stroke-linecap="round" stroke-miterlimit="10" x1="120.939" y1="62.389" x2="55.606" y2="62.389"/>
<line fill="none" stroke="#FFFFFF" stroke-width="4" stroke-linecap="round" stroke-miterlimit="10" x1="120.939" y1="113.722" x2="120.939" y2="27.055"/>
<line fill="none" stroke="#FFFFFF" stroke-width="4" stroke-linecap="round" stroke-miterlimit="10" x1="136.94" y1="113.723" x2="136.94" y2="23.056"/>
<line fill="none" stroke="#FFFFFF" stroke-width="4" stroke-linecap="round" stroke-miterlimit="10" x1="259.442" y1="246.721" x2="259.442" y2="156.054"/>
<g>
	<g>
		<path fill="#FFFFFF" d="M86.273,46.721c3.869,0,3.869-6,0-6S82.404,46.721,86.273,46.721L86.273,46.721z"/>
	</g>
</g>
<g>
	<g>
		<path fill="#FFFFFF" d="M149.607,115.388c3.869,0,3.869-6,0-6S145.738,115.388,149.607,115.388L149.607,115.388z"/>
	</g>
</g>
<g>
	<g>
		<path fill="#FFFFFF" d="M570.846,248.054c3.869,0,3.869-6,0-6S566.977,248.054,570.846,248.054L570.846,248.054z"/>
	</g>
</g>
<line fill="none" stroke="#FFFFFF" stroke-width="4" stroke-linecap="round" stroke-miterlimit="10" x1="55.606" y1="152.388" x2="55.606" y2="245.054"/>
<path fill="none" stroke="#FFFFFF" stroke-width="4" stroke-linecap="round" stroke-miterlimit="10" d="M76.274,229.054"/>
<path fill="none" stroke="#FFFFFF" stroke-width="4" stroke-linecap="round" stroke-miterlimit="10" d="M91.917,198.959
	c-8.551-1.456-18.977,9.051-18.977,46.095"/>
<path fill="none" stroke="#FFFFFF" stroke-width="4" stroke-linecap="round" stroke-miterlimit="10" d="M88.272,198.875
	c8.208-0.51,18.214,3.166,18.214,16.123"/>
<path fill="none" stroke="#FFFFFF" stroke-width="4" stroke-linecap="round" stroke-miterlimit="10" d="M106.929,219.219"/>
<path fill="none" stroke="#FFFFFF" stroke-width="4" stroke-linecap="round" stroke-miterlimit="10" d="M136.595,229.054"/>
<path fill="none" stroke="#FFFFFF" stroke-width="4" stroke-linecap="round" stroke-miterlimit="10" d="M121.272,198.959
	c8.407-1.456,18.656,9.051,18.656,46.095"/>
<path fill="none" stroke="#FFFFFF" stroke-width="4" stroke-linecap="round" stroke-miterlimit="10" d="M124.597,198.875
	c-8.208-0.51-18.214,3.166-18.214,16.123"/>
<path fill="none" stroke="#FFFFFF" stroke-width="4" stroke-linecap="round" stroke-miterlimit="10" d="M105.94,219.219"/>
<line fill="none" stroke="#FFFFFF" stroke-width="4" stroke-linecap="round" stroke-miterlimit="10" x1="72.94" y1="181.719" x2="132.94" y2="181.719"/>
<line fill="none" stroke="#FFFFFF" stroke-width="4" stroke-linecap="round" stroke-miterlimit="10" x1="346.607" y1="248.153" x2="418.606" y2="248.153"/>
<g>
	<g>
		<path fill="#FFFFFF" d="M139.929,184.719c3.869,0,3.869-6,0-6S136.06,184.719,139.929,184.719L139.929,184.719z"/>
	</g>
</g>
<polyline fill="none" stroke="#FFFFFF" stroke-width="4" stroke-linecap="round" stroke-miterlimit="10" points="206.94,250.388 
	206.94,196.626 206.94,152.388 "/>
<path fill="none" stroke="#FFFFFF" stroke-width="4" stroke-linecap="round" stroke-miterlimit="10" d="M206.94,152.388
	c19.191,0,34.75,10.969,34.75,24.5s-15.559,24.5-34.75,24.5"/>
<path fill="none" stroke="#FFFFFF" stroke-width="4" stroke-linecap="round" stroke-miterlimit="10" d="M206.94,201.388
	c19.191,0,34.75,10.969,34.75,24.5s-15.559,24.5-34.75,24.5"/>
<path fill="none" stroke="#FFFFFF" stroke-width="4" stroke-linecap="round" stroke-miterlimit="10" d="M285.714,187.615
	c24.229-48.562,27.305-18.066,27.334-2.666c0.027,15.401-3.438,58.44,0.229,62.438c3.666,3.998,19.333,7.343,19.333-12.669"/>
<path fill="none" stroke="#FFFFFF" stroke-width="4" stroke-linecap="round" stroke-miterlimit="10" d="M310.562,201.719
	c0,0-34.074,7.333-33.691,20.67c0.209,7.285,4.126,24.244,33.691,21.996"/>
<path fill="none" stroke="#FFFFFF" stroke-width="4" stroke-linecap="round" stroke-miterlimit="10" d="M509.498,187.615
	c24.229-48.562,27.305-18.066,27.333-2.666c0.028,15.401-3.438,58.44,0.229,62.438s19.334,7.343,19.334-12.669"/>
<path fill="none" stroke="#FFFFFF" stroke-width="4" stroke-linecap="round" stroke-miterlimit="10" d="M534.345,201.719
	c0,0-34.074,7.333-33.691,20.67c0.209,7.285,4.127,24.244,33.691,21.996"/>
<line fill="none" stroke="#FFFFFF" stroke-width="4" stroke-linecap="round" stroke-miterlimit="10" x1="215.608" y1="241.388" x2="215.608" y2="261.388"/>
<line fill="none" stroke="#FFFFFF" stroke-width="4" stroke-linecap="round" stroke-miterlimit="10" x1="222.608" y1="241.388" x2="222.608" y2="261.388"/>
<line fill="none" stroke="#FFFFFF" stroke-width="4" stroke-linecap="round" stroke-miterlimit="10" x1="392.14" y1="170.953" x2="380.625" y2="192.012"/>
<line fill="none" stroke="#FFFFFF" stroke-width="4" stroke-linecap="round" stroke-miterlimit="10" x1="402.088" y1="176.013" x2="390.573" y2="197.071"/>
<line fill="none" stroke="#FFFFFF" stroke-width="4" stroke-linecap="round" stroke-miterlimit="10" x1="489.42" y1="241.328" x2="473.51" y2="253.448"/>
<line fill="none" stroke="#FFFFFF" stroke-width="4" stroke-linecap="round" stroke-miterlimit="10" x1="489.42" y1="241.449" x2="473.51" y2="229.329"/>
<path fill="none" stroke="#FFFFFF" stroke-width="4" stroke-linecap="round" stroke-miterlimit="10" d="M358.607,232.951
	c0.668-16.04,0.643-50.276,23.093-52.227"/>
<path fill="none" stroke="#FFFFFF" stroke-width="4" stroke-linecap="round" stroke-miterlimit="10" d="M404.802,232.687
	c-0.668-16.04-0.643-50.277-23.093-52.227"/>
<path fill="none" stroke="#FFFFFF" stroke-width="4" stroke-linecap="round" stroke-miterlimit="10" d="M463.92,159.377
	c-42.478,0.342-66.644,100.206,22.343,82.011"/>
</svg>
