<?xml version="1.0" encoding="utf-8"?>
<!-- Generator: Adobe Illustrator 15.1.0, SVG Export Plug-In . SVG Version: 6.00 Build 0)  -->
<!DOCTYPE svg PUBLIC "-//W3C//DTD SVG 1.1//EN" "http://www.w3.org/Graphics/SVG/1.1/DTD/svg11.dtd">
<svg version="1.1" id="Layer_1" xmlns="http://www.w3.org/2000/svg" xmlns:xlink="http://www.w3.org/1999/xlink" x="0px" y="0px"
	 width="612px" height="150px" viewBox="0 0 612 150" enable-background="new 0 0 612 150" xml:space="preserve">
<g>
	<g>
		<path fill="#FFFFFF" stroke="#FFFFFF" stroke-miterlimit="10" d="M63.845,16.456c3.954,5.311,8.534,14.502,2.902,20.184
			c-1.363,1.375,0.758,3.496,2.12,2.121c6.686-6.744,2.425-17.297-2.432-23.817C65.295,13.409,62.689,14.902,63.845,16.456
			L63.845,16.456z"/>
	</g>
</g>
<line fill="none" stroke="#FFFFFF" stroke-width="4" stroke-linecap="round" stroke-miterlimit="10" x1="257.488" y1="121.032" x2="257.488" y2="30.366"/>
<g>
	<g>
		<path fill="#FFFFFF" stroke="#FFFFFF" stroke-miterlimit="10" d="M568.893,122.366c3.869,0,3.869-6,0-6
			S565.023,122.366,568.893,122.366L568.893,122.366z"/>
	</g>
</g>
<line fill="none" stroke="#FFFFFF" stroke-width="4" stroke-linecap="round" stroke-miterlimit="10" x1="53.652" y1="26.7" x2="53.652" y2="119.366"/>
<path fill="none" stroke="#FFFFFF" stroke-width="4" stroke-linecap="round" stroke-miterlimit="10" d="M74.32,103.366"/>
<path fill="none" stroke="#FFFFFF" stroke-width="4" stroke-linecap="round" stroke-miterlimit="10" d="M89.964,73.271
	c-8.551-1.456-18.978,9.051-18.978,46.096"/>
<path fill="none" stroke="#FFFFFF" stroke-width="4" stroke-linecap="round" stroke-miterlimit="10" d="M86.318,73.187
	c8.209-0.51,18.215,3.166,18.215,16.123"/>
<path fill="none" stroke="#FFFFFF" stroke-width="4" stroke-linecap="round" stroke-miterlimit="10" d="M104.977,93.53"/>
<path fill="none" stroke="#FFFFFF" stroke-width="4" stroke-linecap="round" stroke-miterlimit="10" d="M134.643,103.366"/>
<path fill="none" stroke="#FFFFFF" stroke-width="4" stroke-linecap="round" stroke-miterlimit="10" d="M119.318,73.271
	c8.408-1.456,18.656,9.051,18.656,46.096"/>
<path fill="none" stroke="#FFFFFF" stroke-width="4" stroke-linecap="round" stroke-miterlimit="10" d="M122.645,73.187
	c-8.209-0.51-18.215,3.166-18.215,16.123"/>
<path fill="none" stroke="#FFFFFF" stroke-width="4" stroke-linecap="round" stroke-miterlimit="10" d="M103.986,93.53"/>
<line fill="none" stroke="#FFFFFF" stroke-width="4" stroke-linecap="round" stroke-miterlimit="10" x1="70.986" y1="56.03" x2="130.986" y2="56.03"/>
<line fill="none" stroke="#FFFFFF" stroke-width="4" stroke-linecap="round" stroke-miterlimit="10" x1="344.654" y1="122.464" x2="416.653" y2="122.464"/>
<g>
	<g>
		<path fill="#FFFFFF" stroke="#FFFFFF" stroke-miterlimit="10" d="M137.977,59.03c3.868,0,3.868-6,0-6
			C134.107,53.03,134.107,59.03,137.977,59.03L137.977,59.03z"/>
	</g>
</g>
<polyline fill="none" stroke="#FFFFFF" stroke-width="4" stroke-linecap="round" stroke-miterlimit="10" points="204.986,124.7 
	204.986,70.938 204.986,26.7 "/>
<path fill="none" stroke="#FFFFFF" stroke-width="4" stroke-linecap="round" stroke-miterlimit="10" d="M204.986,26.7
	c19.191,0,34.75,10.969,34.75,24.5c0,13.53-15.559,24.5-34.75,24.5"/>
<path fill="none" stroke="#FFFFFF" stroke-width="4" stroke-linecap="round" stroke-miterlimit="10" d="M204.986,75.7
	c19.191,0,34.75,10.969,34.75,24.5c0,13.53-15.559,24.5-34.75,24.5"/>
<path fill="none" stroke="#FFFFFF" stroke-width="4" stroke-linecap="round" stroke-miterlimit="10" d="M283.761,61.927
	c24.229-48.562,27.305-18.066,27.334-2.666c0.027,15.4-3.438,58.439,0.229,62.438c3.666,3.998,19.333,7.344,19.333-12.669"/>
<path fill="none" stroke="#FFFFFF" stroke-width="4" stroke-linecap="round" stroke-miterlimit="10" d="M308.609,76.03
	c0,0-34.074,7.333-33.691,20.67c0.209,7.285,4.126,24.244,33.691,21.996"/>
<path fill="none" stroke="#FFFFFF" stroke-width="4" stroke-linecap="round" stroke-miterlimit="10" d="M507.545,61.927
	c24.229-48.562,27.305-18.066,27.333-2.666s-3.438,58.439,0.229,62.438s19.334,7.344,19.334-12.669"/>
<path fill="none" stroke="#FFFFFF" stroke-width="4" stroke-linecap="round" stroke-miterlimit="10" d="M532.392,76.03
	c0,0-34.074,7.333-33.69,20.67c0.209,7.285,4.127,24.244,33.69,21.996"/>
<line fill="none" stroke="#FFFFFF" stroke-width="4" stroke-linecap="round" stroke-miterlimit="10" x1="213.654" y1="115.7" x2="213.654" y2="135.7"/>
<line fill="none" stroke="#FFFFFF" stroke-width="4" stroke-linecap="round" stroke-miterlimit="10" x1="220.654" y1="115.7" x2="220.654" y2="135.7"/>
<line fill="none" stroke="#FFFFFF" stroke-width="4" stroke-linecap="round" stroke-miterlimit="10" x1="390.187" y1="45.265" x2="378.672" y2="66.323"/>
<line fill="none" stroke="#FFFFFF" stroke-width="4" stroke-linecap="round" stroke-miterlimit="10" x1="400.135" y1="50.325" x2="388.62" y2="71.382"/>
<line fill="none" stroke="#FFFFFF" stroke-width="4" stroke-linecap="round" stroke-miterlimit="10" x1="487.467" y1="115.64" x2="471.557" y2="127.76"/>
<line fill="none" stroke="#FFFFFF" stroke-width="4" stroke-linecap="round" stroke-miterlimit="10" x1="487.467" y1="115.761" x2="471.557" y2="103.641"/>
<path fill="none" stroke="#FFFFFF" stroke-width="4" stroke-linecap="round" stroke-miterlimit="10" d="M356.654,107.263
	c0.668-16.04,0.643-50.276,23.093-52.227"/>
<path fill="none" stroke="#FFFFFF" stroke-width="4" stroke-linecap="round" stroke-miterlimit="10" d="M402.849,106.999
	c-0.668-16.041-0.643-50.277-23.093-52.228"/>
<path fill="none" stroke="#FFFFFF" stroke-width="4" stroke-linecap="round" stroke-miterlimit="10" d="M461.967,33.688
	c-42.478,0.342-66.644,100.206,22.343,82.012"/>
</svg>
